<?xml version="1.0" standalone="no"?>
<!DOCTYPE svg PUBLIC "-//W3C//DTD SVG 20010904//EN"
 "http://www.w3.org/TR/2001/REC-SVG-20010904/DTD/svg10.dtd">
<svg version="1.0" xmlns="http://www.w3.org/2000/svg"
 width="225.000000pt" height="225.000000pt" viewBox="0 0 225.000000 225.000000"
 preserveAspectRatio="xMidYMid meet">

<g transform="translate(0.000000,225.000000) scale(0.100000,-0.100000)"
fill="#000000" stroke="none">
<path d="M810 2235 c-376 -59 -689 -347 -782 -721 -29 -118 -31 -321 -4 -439
78 -341 330 -614 661 -715 155 -48 374 -52 530 -10 95 25 242 94 307 144 26
20 50 36 55 36 4 0 121 -113 258 -251 138 -138 262 -257 277 -265 42 -22 67
-17 104 20 37 37 42 62 20 104 -8 15 -127 139 -265 277 -138 137 -251 253
-251 256 0 3 24 42 54 86 64 96 111 213 138 343 38 181 10 412 -71 585 -144
307 -423 513 -752 555 -105 13 -172 12 -279 -5z m375 -205 c173 -55 345 -183
435 -326 211 -335 144 -769 -157 -1019 -79 -66 -218 -136 -318 -161 -100 -25
-266 -22 -370 5 -269 71 -487 283 -560 546 -24 89 -30 274 -12 362 67 311 317
557 625 613 84 16 279 5 357 -20z"/>
</g>
</svg>
