<?xml version="1.0" standalone="no"?>
<!DOCTYPE svg PUBLIC "-//W3C//DTD SVG 20010904//EN"
 "http://www.w3.org/TR/2001/REC-SVG-20010904/DTD/svg10.dtd">
<svg version="1.0" xmlns="http://www.w3.org/2000/svg"
 width="512.000000pt" height="512.000000pt" viewBox="0 0 512.000000 512.000000"
 preserveAspectRatio="xMidYMid meet">

<g transform="translate(0.000000,512.000000) scale(0.100000,-0.100000)"
fill="#000000" stroke="none">
<path d="M239 4461 c-16 -16 -29 -38 -29 -48 0 -24 -89 123 1193 -1968 899
-1466 1108 -1802 1130 -1809 65 -23 9 -109 1169 1784 1290 2104 1208 1969
1208 1993 0 10 -13 32 -29 48 l-29 29 -2292 0 -2292 0 -29 -29z m4206 -160
c-113 -64 -1875 -981 -1885 -981 -10 0 -1732 897 -1875 976 l-60 34 1935 0
1935 0 -50 -29z m-2782 -698 l817 -428 0 -1084 c0 -597 -1 -1085 -3 -1087 -2
-2 -1949 3171 -1956 3189 -2 5 70 -30 160 -77 90 -47 532 -278 982 -513z
m1960 -1005 c-538 -878 -979 -1595 -980 -1594 -2 2 -3 490 -3 1087 l0 1084
977 511 c538 282 979 511 981 510 1 -2 -438 -721 -975 -1598z"/>
</g>
</svg>
